HIERARCHY
ROOT Hips
{
	OFFSET 0.000000 97.167313 0.000000
	CHANNELS 6 Xposition Yposition Zposition Xrotation Yrotation Zrotation
	JOINT Spine
	{
		OFFSET 0.000000 13.784798 0.064400
		CHANNELS 3 Xrotation Yrotation Zrotation
		JOINT Spine1
		{
			OFFSET 0.000000 12.037903 0.404700
			CHANNELS 3 Xrotation Yrotation Zrotation
			JOINT Spine2
			{
				OFFSET 0.000000 17.795601 0.420200
				CHANNELS 3 Xrotation Yrotation Zrotation
				JOINT Neck
				{
					OFFSET 0.000000 39.131302 11.954600
					CHANNELS 3 Xrotation Yrotation Zrotation
					JOINT Head
					{
						OFFSET 0.000000 14.456192 15.627699
						CHANNELS 3 Xrotation Yrotation Zrotation
						JOINT HeadTop_End
						{
							OFFSET 0.000000 15.703506 7.603401
							CHANNELS 3 Xrotation Yrotation Zrotation
							End Site
							{
								OFFSET 0.000000 17.447403 0.000000
							}
						}
					}
				}
				JOINT LeftShoulder
				{
					OFFSET 17.399500 24.608795 1.168800
					CHANNELS 3 Xrotation Yrotation Zrotation
					JOINT LeftArm
					{
						OFFSET 18.980635 5.765305 1.818600
						CHANNELS 3 Xrotation Yrotation Zrotation
						JOINT LeftForeArm
						{
							OFFSET 49.290169 0.000000 0.000000
							CHANNELS 3 Xrotation Yrotation Zrotation
							JOINT LeftHand
							{
								OFFSET 31.562012 0.000000 0.000000
								CHANNELS 3 Xrotation Yrotation Zrotation
								JOINT LeftHandThumb1
								{
									OFFSET 6.133995 -4.388519 7.076070
									CHANNELS 3 Xrotation Yrotation Zrotation
									JOINT LeftHandThumb2
									{
										OFFSET 6.037666 -3.485840 3.485847
										CHANNELS 3 Xrotation Yrotation Zrotation
										JOINT LeftHandThumb3
										{
											OFFSET 6.496506 -3.750763 3.750761
											CHANNELS 3 Xrotation Yrotation Zrotation
											JOINT LeftHandThumb4
											{
												OFFSET 5.616882 -3.242905 3.242910
												CHANNELS 3 Xrotation Yrotation Zrotation
												End Site
												{
													OFFSET -1.254608 7.132141 0.375429
												}
											}
										}
									}
								}
								JOINT LeftHandPinky1
								{
									OFFSET 18.920792 -0.453171 -11.426712
									CHANNELS 3 Xrotation Yrotation Zrotation
									JOINT LeftHandPinky2
									{
										OFFSET 4.919586 0.000000 0.000000
										CHANNELS 3 Xrotation Yrotation Zrotation
										JOINT LeftHandPinky3
										{
											OFFSET 5.233047 0.000000 0.000000
											CHANNELS 3 Xrotation Yrotation Zrotation
											JOINT LeftHandPinky4
											{
												OFFSET 5.571716 0.000000 0.000000
												CHANNELS 3 Xrotation Yrotation Zrotation
												End Site
												{
													OFFSET -3.459808 4.342407 -0.466164
												}
											}
										}
									}
								}
								JOINT LeftHandRing1
								{
									OFFSET 22.726120 -0.094986 -6.500475
									CHANNELS 3 Xrotation Yrotation Zrotation
									JOINT LeftHandRing2
									{
										OFFSET 6.408615 0.000000 0.000000
										CHANNELS 3 Xrotation Yrotation Zrotation
										JOINT LeftHandRing3
										{
											OFFSET 6.150223 0.000000 0.000000
											CHANNELS 3 Xrotation Yrotation Zrotation
											JOINT LeftHandRing4
											{
												OFFSET 6.145386 0.000000 0.000000
												CHANNELS 3 Xrotation Yrotation Zrotation
												End Site
												{
													OFFSET -3.671402 4.923981 -0.202372
												}
											}
										}
									}
								}
								JOINT LeftHandMiddle1
								{
									OFFSET 23.373947 0.000000 0.000001
									CHANNELS 3 Xrotation Yrotation Zrotation
									JOINT LeftHandMiddle2
									{
										OFFSET 6.996567 0.000000 0.000000
										CHANNELS 3 Xrotation Yrotation Zrotation
										JOINT LeftHandMiddle3
										{
											OFFSET 7.015945 0.000000 0.000000
											CHANNELS 3 Xrotation Yrotation Zrotation
											JOINT LeftHandMiddle4
											{
												OFFSET 7.721573 0.000000 0.000000
												CHANNELS 3 Xrotation Yrotation Zrotation
												End Site
												{
													OFFSET -4.651108 6.158463 0.251582
												}
											}
										}
									}
								}
								JOINT LeftHandIndex1
								{
									OFFSET 21.310577 -0.490082 6.209344
									CHANNELS 3 Xrotation Yrotation Zrotation
									JOINT LeftHandIndex2
									{
										OFFSET 7.536453 0.000000 0.000000
										CHANNELS 3 Xrotation Yrotation Zrotation
										JOINT LeftHandIndex3
										{
											OFFSET 7.512344 0.000000 0.000000
											CHANNELS 3 Xrotation Yrotation Zrotation
											JOINT LeftHandIndex4
											{
												OFFSET 10.212402 0.000000 0.000001
												CHANNELS 3 Xrotation Yrotation Zrotation
												End Site
												{
													OFFSET -5.180801 8.690506 1.388433
												}
											}
										}
									}
								}
							}
						}
					}
				}
				JOINT RightShoulder
				{
					OFFSET -17.399500 24.608795 1.168800
					CHANNELS 3 Xrotation Yrotation Zrotation
					JOINT RightArm
					{
						OFFSET -18.980635 5.765305 1.818600
						CHANNELS 3 Xrotation Yrotation Zrotation
						JOINT RightForeArm
						{
							OFFSET -49.290169 0.000000 0.000000
							CHANNELS 3 Xrotation Yrotation Zrotation
							JOINT RightHand
							{
								OFFSET -31.562012 0.000000 0.000000
								CHANNELS 3 Xrotation Yrotation Zrotation
								JOINT RightHandThumb1
								{
									OFFSET -6.133995 -4.388519 7.076070
									CHANNELS 3 Xrotation Yrotation Zrotation
									JOINT RightHandThumb2
									{
										OFFSET -6.037666 -3.485840 3.485847
										CHANNELS 3 Xrotation Yrotation Zrotation
										JOINT RightHandThumb3
										{
											OFFSET -6.496506 -3.750763 3.750761
											CHANNELS 3 Xrotation Yrotation Zrotation
											JOINT RightHandThumb4
											{
												OFFSET -5.616882 -3.242905 3.242910
												CHANNELS 3 Xrotation Yrotation Zrotation
												End Site
												{
													OFFSET 1.254608 7.132141 0.375429
												}
											}
										}
									}
								}
								JOINT RightHandIndex1
								{
									OFFSET -21.310577 -0.490082 6.209344
									CHANNELS 3 Xrotation Yrotation Zrotation
									JOINT RightHandIndex2
									{
										OFFSET -7.536453 0.000000 0.000000
										CHANNELS 3 Xrotation Yrotation Zrotation
										JOINT RightHandIndex3
										{
											OFFSET -7.512344 0.000000 0.000000
											CHANNELS 3 Xrotation Yrotation Zrotation
											JOINT RightHandIndex4
											{
												OFFSET -10.212402 0.000000 0.000001
												CHANNELS 3 Xrotation Yrotation Zrotation
												End Site
												{
													OFFSET 5.180801 8.690506 1.388433
												}
											}
										}
									}
								}
								JOINT RightHandMiddle1
								{
									OFFSET -23.373947 0.000000 0.000001
									CHANNELS 3 Xrotation Yrotation Zrotation
									JOINT RightHandMiddle2
									{
										OFFSET -6.996567 0.000000 0.000000
										CHANNELS 3 Xrotation Yrotation Zrotation
										JOINT RightHandMiddle3
										{
											OFFSET -7.015945 0.000000 0.000000
											CHANNELS 3 Xrotation Yrotation Zrotation
											JOINT RightHandMiddle4
											{
												OFFSET -7.721573 0.000000 0.000000
												CHANNELS 3 Xrotation Yrotation Zrotation
												End Site
												{
													OFFSET 4.651108 6.158463 0.251582
												}
											}
										}
									}
								}
								JOINT RightHandRing1
								{
									OFFSET -22.726120 -0.094986 -6.500475
									CHANNELS 3 Xrotation Yrotation Zrotation
									JOINT RightHandRing2
									{
										OFFSET -6.408615 0.000000 0.000000
										CHANNELS 3 Xrotation Yrotation Zrotation
										JOINT RightHandRing3
										{
											OFFSET -6.150223 0.000000 0.000000
											CHANNELS 3 Xrotation Yrotation Zrotation
											JOINT RightHandRing4
											{
												OFFSET -6.145386 0.000000 0.000000
												CHANNELS 3 Xrotation Yrotation Zrotation
												End Site
												{
													OFFSET 3.671402 4.923981 -0.202372
												}
											}
										}
									}
								}
								JOINT RightHandPinky1
								{
									OFFSET -18.920792 -0.453171 -11.426712
									CHANNELS 3 Xrotation Yrotation Zrotation
									JOINT RightHandPinky2
									{
										OFFSET -4.919586 0.000000 0.000000
										CHANNELS 3 Xrotation Yrotation Zrotation
										JOINT RightHandPinky3
										{
											OFFSET -5.233047 0.000000 0.000000
											CHANNELS 3 Xrotation Yrotation Zrotation
											JOINT RightHandPinky4
											{
												OFFSET -5.571716 0.000000 0.000000
												CHANNELS 3 Xrotation Yrotation Zrotation
												End Site
												{
													OFFSET 3.459808 4.342407 -0.466164
												}
											}
										}
									}
								}
							}
						}
					}
				}
			}
		}
	}
	JOINT LeftUpLeg
	{
		OFFSET 19.899099 -7.885101 -3.429500
		CHANNELS 3 Xrotation Yrotation Zrotation
		JOINT LeftLeg
		{
			OFFSET 1.745560 -36.997807 10.304700
			CHANNELS 3 Xrotation Yrotation Zrotation
			JOINT LeftFoot
			{
				OFFSET -1.745558 -29.803308 -13.615400
				CHANNELS 3 Xrotation Yrotation Zrotation
				JOINT LeftToeBase
				{
					OFFSET 1.181900 -18.539904 15.226099
					CHANNELS 3 Xrotation Yrotation Zrotation
					JOINT LeftToe_End
					{
						OFFSET -0.863701 1.402801 16.534700
						CHANNELS 3 Xrotation Yrotation Zrotation
						End Site
						{
							OFFSET 0.000000 16.616566 0.000000
						}
					}
				}
			}
		}
	}
	JOINT RightUpLeg
	{
		OFFSET -19.899099 -7.885101 -3.429500
		CHANNELS 3 Xrotation Yrotation Zrotation
		JOINT RightLeg
		{
			OFFSET -1.745560 -36.997807 10.304700
			CHANNELS 3 Xrotation Yrotation Zrotation
			JOINT RightFoot
			{
				OFFSET 1.745558 -29.803308 -13.615400
				CHANNELS 3 Xrotation Yrotation Zrotation
				JOINT RightToeBase
				{
					OFFSET -1.181900 -18.539904 15.226099
					CHANNELS 3 Xrotation Yrotation Zrotation
					JOINT RightToe_End
					{
						OFFSET 0.863701 1.402801 16.534700
						CHANNELS 3 Xrotation Yrotation Zrotation
						End Site
						{
							OFFSET 0.000000 16.616566 0.000000
						}
					}
				}
			}
		}
	}
}
MOTION
Frames: 6
Frame Time: 0.033333
-5.868881 34.634079 8.018661 42.286067 -51.596595 32.924654 2.911093 -1.009687 -1.613064 7.291395 -1.840492 -2.591511 7.291371 -1.841342 -2.591302 10.228908 26.733968 -15.007017 -43.064800 24.870612 4.447127 0.000000 0.000000 -0.000001 9.773510 -6.506309 -9.303958 -72.516077 -11.556140 -30.916435 36.849649 -14.101487 14.456468 5.862769 -10.180059 -1.870880 40.109842 -15.297262 -0.360558 5.639962 28.098227 11.338808 1.088545 40.896243 22.734023 0.000001 -0.000000 0.000001 -17.946909 14.755121 -51.486058 8.857197 8.678429 -84.811736 4.525024 8.855456 -59.151904 -0.000000 -0.000000 -0.000000 -9.042471 10.045691 -60.766205 8.524097 9.508795 -66.893152 6.576352 9.896639 -70.385011 -0.000000 0.000000 0.000003 -2.345650 4.688909 -62.655238 8.754078 9.897151 -87.051328 1.995504 4.929354 -37.483392 -0.000002 0.000002 0.000004 6.882156 2.840156 -61.140520 8.248037 7.640031 -89.897980 2.146230 8.173543 -41.827505 -0.000001 0.000001 0.000001 9.055391 13.972840 25.176651 0.598424 2.187584 21.193346 -6.097178 21.561937 4.132189 -3.508829 -2.211996 1.920824 -2.349026 -6.096112 10.731899 2.360159 -23.809297 -8.767523 -4.993084 13.973567 5.849456 -0.000003 -0.000003 -0.000003 -0.045433 0.534772 0.732675 0.023353 -0.075616 5.084379 0.001882 -1.993731 -2.824406 0.000002 -0.000001 0.000001 0.354968 -5.911299 2.583556 1.432463 -4.191671 24.052718 0.107973 1.665878 -1.413199 0.000003 0.000001 -0.000004 1.205962 -11.748172 4.153875 1.801188 -3.778132 26.866687 1.329774 -3.992703 19.489164 0.000001 0.000002 0.000000 2.126308 -19.166691 11.319205 3.370372 -2.107912 18.830167 6.367462 -5.006485 28.948903 -0.000000 -0.000002 0.000007 -95.964096 -33.156788 55.227567 102.601845 -38.303773 -6.700456 -20.182908 -2.476255 -20.000361 -1.836418 0.004780 -0.000078 -0.000000 -0.000002 -0.000000 -102.990435 22.588131 -60.320706 112.039869 37.351224 12.418273 -7.464716 -2.594615 2.952217 -12.415132 0.024393 -0.083433 -0.000000 0.000000 -0.000000 
-5.873737 34.636040 8.033985 42.288665 -51.615292 32.915030 2.936183 -1.015104 -1.613212 7.291421 -1.840507 -2.591508 7.291364 -1.841357 -2.591284 10.213788 26.736127 -15.023559 -43.095683 24.841321 4.526980 0.000000 0.000000 -0.000000 9.824394 -6.344090 -9.247627 -72.484146 -11.285101 -31.018478 36.930853 -14.522307 14.801256 5.856823 -9.976069 -2.164929 40.109842 -15.297257 -0.360557 5.639960 28.098227 11.338811 1.088545 40.896249 22.734029 0.000001 0.000001 0.000001 -17.946906 14.755119 -51.486055 8.857194 8.678431 -84.811736 4.525024 8.855456 -59.151897 -0.000000 0.000001 -0.000004 -9.042468 10.045689 -60.766205 8.524098 9.508796 -66.893152 6.576353 9.896638 -70.385011 -0.000001 0.000004 -0.000002 -2.345651 4.688913 -62.655238 8.754080 9.897150 -87.051328 1.995504 4.929351 -37.483388 0.000000 0.000000 0.000008 6.882153 2.840156 -61.140513 8.248029 7.640034 -89.897980 2.146231 8.173542 -41.827498 -0.000001 0.000007 -0.000003 9.055401 13.972859 25.176639 0.597787 2.173887 21.138131 -6.138418 21.553743 4.200443 -3.489915 -1.796718 2.279076 -2.349032 -6.096109 10.731903 2.364009 -23.821629 -8.770109 -4.951425 13.887581 5.821716 0.000002 -0.000002 -0.000000 -0.046976 0.532268 0.989286 0.022297 -0.080567 5.336747 0.009278 -1.998637 -2.571763 -0.000000 -0.000002 0.000003 0.376588 -5.915554 2.830407 1.434222 -4.192081 24.111498 0.107633 1.664838 -1.350306 0.000002 -0.000006 -0.000006 1.242558 -11.752342 4.360640 1.814377 -3.771868 27.066892 1.330186 -3.993896 19.545785 -0.000005 0.000003 -0.000003 2.189638 -19.153046 11.590615 3.372347 -2.093394 19.080956 6.373997 -4.985574 29.207234 -0.000001 0.000001 0.000008 -95.931516 -33.171603 55.286959 102.602200 -38.333351 -6.705198 -20.192327 -2.487313 -19.986728 -1.836418 0.004778 -0.000078 0.000000 -0.000002 -0.000000 -103.050370 22.581276 -60.237453 112.053577 37.315963 12.367090 -7.399783 -2.610589 2.990109 -12.467746 0.024492 -0.087604 -0.000000 -0.000000 -0.000000 
-5.883415 34.640373 8.046808 42.291251 -51.633232 32.901066 2.965359 -1.020815 -1.613461 7.291429 -1.840493 -2.591516 7.291350 -1.841343 -2.591296 10.235768 26.721044 -15.098278 -43.163077 24.806105 4.624580 -0.000000 -0.000001 -0.000000 9.822420 -6.278753 -9.315177 -72.400087 -11.102238 -30.976527 37.012853 -14.939128 15.142799 5.849794 -9.772316 -2.467379 40.109845 -15.297255 -0.360562 5.639955 28.098232 11.338802 1.088538 40.896253 22.734020 -0.000003 0.000001 0.000004 -17.946915 14.755119 -51.486062 8.857194 8.678430 -84.811743 4.525023 8.855456 -59.151904 0.000002 -0.000000 -0.000001 -9.042470 10.045688 -60.766199 8.524096 9.508795 -66.893152 6.576355 9.896641 -70.385011 -0.000001 0.000000 0.000003 -2.345651 4.688912 -62.655238 8.754078 9.897149 -87.051321 1.995502 4.929359 -37.483395 -0.000002 0.000001 0.000004 6.882154 2.840157 -61.140513 8.248031 7.640031 -89.897980 2.146231 8.173541 -41.827498 -0.000001 0.000002 -0.000003 9.046319 13.975215 25.158175 0.608201 2.198724 21.098668 -6.225296 21.508471 4.283164 -3.475303 -1.332861 2.664661 -2.349027 -6.096110 10.731907 2.374089 -23.854051 -8.776916 -4.895265 13.772217 5.784387 0.000001 0.000002 0.000001 -0.049260 0.532331 1.311858 0.021011 -0.086973 5.662004 0.019140 -2.001643 -2.252135 -0.000001 -0.000001 -0.000002 0.391463 -5.914333 3.137662 1.439311 -4.193275 24.281761 0.103862 1.661888 -1.162350 0.000002 -0.000000 -0.000002 1.274087 -11.743735 4.636229 1.832074 -3.763273 27.336545 1.342129 -3.996002 19.711605 -0.000001 0.000002 0.000000 2.231479 -19.128522 11.944205 3.375210 -2.076625 19.423064 6.378887 -4.960527 29.564580 0.000001 0.000002 0.000008 -95.901450 -33.191868 55.344562 102.602002 -38.365220 -6.719915 -20.195310 -2.502281 -19.966265 -1.836418 0.004772 -0.000078 -0.000000 -0.000001 -0.000000 -103.104315 22.585998 -60.166884 112.052675 37.289459 12.327614 -7.292343 -2.631034 3.040550 -12.552608 0.024584 -0.087578 -0.000000 0.000000 -0.000000 
-5.898891 34.650246 8.052406 42.290940 -51.647561 32.879974 3.003047 -1.026887 -1.613342 7.288949 -1.836897 -2.579396 7.288766 -1.838269 -2.581041 10.274762 26.681215 -15.226129 -43.256343 24.754255 4.734881 0.000000 -0.000000 -0.000001 9.832816 -6.186371 -9.352066 -72.342556 -10.927277 -30.979286 37.074134 -15.288453 15.423918 5.841115 -9.605021 -2.747554 40.109845 -15.297262 -0.360558 5.639953 28.098227 11.338803 1.088539 40.896249 22.734023 -0.000001 -0.000000 0.000003 -17.946909 14.755121 -51.486058 8.857194 8.678430 -84.811743 4.525026 8.855456 -59.151897 -0.000000 0.000003 -0.000004 -9.042468 10.045689 -60.766212 8.524096 9.508795 -66.893152 6.576353 9.896637 -70.385011 0.000002 0.000001 0.000002 -2.345651 4.688909 -62.655238 8.754076 9.897150 -87.051328 1.995503 4.929356 -37.483388 -0.000001 0.000001 0.000004 6.882155 2.840153 -61.140513 8.248034 7.640032 -89.897980 2.146232 8.173540 -41.827498 -0.000000 -0.000002 -0.000002 9.032954 13.984607 25.155085 0.648017 2.181768 21.008304 -6.367686 21.516033 4.402554 -3.464164 -0.880199 3.107879 -2.349026 -6.096109 10.731903 2.388027 -23.909226 -8.787452 -4.860831 13.705388 5.761418 0.000000 -0.000002 -0.000001 -0.051923 0.531804 1.700072 0.021629 -0.086866 6.044218 0.026363 -2.001209 -1.868049 -0.000004 0.000001 -0.000001 0.401871 -5.913423 3.501653 1.447373 -4.195143 24.553540 0.100100 1.662168 -0.867314 -0.000001 -0.000002 -0.000007 1.303284 -11.726547 4.974197 1.853936 -3.752566 27.669781 1.360426 -3.989831 19.975312 -0.000000 0.000002 -0.000001 2.253431 -19.095237 12.372194 3.379162 -2.067317 19.844671 6.373756 -4.934814 30.012719 0.000002 0.000003 0.000006 -95.860141 -33.212570 55.406775 102.591477 -38.395406 -6.751452 -20.198384 -2.517719 -19.944267 -1.836418 0.004775 -0.000078 0.000000 -0.000000 -0.000000 -103.162269 22.581406 -60.083781 112.056664 37.247825 12.280229 -7.167886 -2.655055 3.095658 -12.659892 0.024772 -0.087525 -0.000000 0.000000 -0.000000 
-5.917347 34.668007 8.052399 42.288761 -51.657943 32.857854 3.048277 -1.033413 -1.612198 7.272849 -1.830869 -2.561415 7.272632 -1.832341 -2.563234 10.305060 26.644295 -15.384398 -43.348824 24.699607 4.853884 -0.000000 0.000000 -0.000000 9.737015 -6.268040 -9.623022 -72.207319 -10.970375 -30.736770 37.105624 -15.518630 15.601428 5.829311 -9.492259 -2.994176 40.109849 -15.297264 -0.360567 5.639957 28.098230 11.338806 1.088540 40.896253 22.734025 0.000002 0.000001 -0.000001 -17.946913 14.755119 -51.486058 8.857197 8.678433 -84.811736 4.525023 8.855456 -59.151904 0.000000 -0.000000 -0.000000 -9.042469 10.045693 -60.766199 8.524096 9.508795 -66.893158 6.576352 9.896638 -70.385017 0.000003 -0.000002 0.000007 -2.345650 4.688912 -62.655238 8.754082 9.897150 -87.051321 1.995503 4.929355 -37.483388 -0.000000 0.000004 0.000009 6.882156 2.840152 -61.140520 8.248031 7.640038 -89.897987 2.146233 8.173538 -41.827505 -0.000003 0.000001 0.000001 9.046490 13.965526 25.062028 0.660897 2.212586 20.976754 -6.494391 21.502824 4.542422 -3.458607 -0.439661 3.595765 -2.349029 -6.096115 10.731902 2.405101 -23.984279 -8.801031 -4.810467 13.608606 5.727643 -0.000002 -0.000002 -0.000002 -0.054899 0.531437 2.144585 0.022344 -0.086698 6.486222 0.028679 -2.000475 -1.434224 -0.000000 0.000000 0.000001 0.405426 -5.903141 3.914237 1.448264 -4.198044 24.915610 0.096368 1.662360 -0.468652 0.000001 0.000001 -0.000008 1.330308 -11.704781 5.367889 1.874642 -3.731027 28.059175 1.384893 -3.981424 20.326324 0.000002 0.000002 0.000002 2.256691 -19.054368 12.864268 3.374771 -2.059335 20.339024 6.366719 -4.918535 30.539466 0.000001 -0.000000 0.000006 -95.805131 -33.212358 55.462618 102.557961 -38.430227 -6.782231 -20.214959 -2.524122 -19.918906 -1.836418 0.004774 -0.000078 0.000000 -0.000003 -0.000000 -103.222839 22.575691 -59.994360 112.057019 37.190670 12.230313 -7.019997 -2.689318 3.159863 -12.783284 0.024965 -0.087460 0.000000 0.000000 -0.000000 
-5.932632 34.692268 8.055672 42.297651 -51.664517 32.852056 3.084196 -1.040260 -1.610061 7.248804 -1.828010 -2.555902 7.248506 -1.827695 -2.551648 10.341021 26.630872 -15.569529 -43.423751 24.666125 4.979448 -0.000000 -0.000000 -0.000001 9.708999 -6.237792 -9.738213 -72.165538 -10.961949 -30.670220 37.132296 -15.645329 15.703331 5.817730 -9.420387 -3.192019 40.109842 -15.297260 -0.360561 5.639959 28.098227 11.338800 1.088546 40.896253 22.734023 0.000001 0.000005 0.000004 -17.946913 14.755119 -51.486062 8.857196 8.678433 -84.811743 4.525024 8.855455 -59.151904 0.000002 0.000000 -0.000002 -9.042467 10.045690 -60.766205 8.524097 9.508795 -66.893152 6.576352 9.896639 -70.385004 0.000001 -0.000001 0.000005 -2.345650 4.688912 -62.655231 8.754081 9.897150 -87.051321 1.995503 4.929359 -37.483392 -0.000001 -0.000001 0.000001 6.882157 2.840154 -61.140520 8.248030 7.640031 -89.897980 2.146228 8.173542 -41.827501 0.000000 0.000000 -0.000004 9.039463 13.950078 24.979960 0.664762 2.243244 20.932583 -6.547305 21.484252 4.607729 -3.459219 -0.039711 4.149959 -2.349026 -6.096107 10.731905 2.427591 -24.076692 -8.818311 -4.772436 13.537192 5.702152 -0.000000 -0.000001 -0.000001 -0.058107 0.530984 2.635273 0.023050 -0.086530 6.979967 0.029588 -1.999714 -0.936117 0.000002 -0.000001 -0.000001 0.406524 -5.891084 4.368636 1.449528 -4.201544 25.360277 0.092696 1.663387 0.021563 -0.000001 -0.000001 -0.000006 1.355220 -11.678715 5.809701 1.897049 -3.705449 28.497344 1.411590 -3.962433 20.757669 -0.000003 0.000001 -0.000001 2.242675 -19.007904 13.411800 3.367638 -2.052810 20.892920 6.353598 -4.903999 31.138798 -0.000000 0.000002 0.000004 -95.723237 -33.190256 55.530107 102.515252 -38.463490 -6.817650 -20.263414 -2.526986 -19.893107 -1.836418 0.004777 -0.000078 0.000000 0.000000 -0.000000 -103.273314 22.577988 -59.909543 112.040183 37.138689 12.193565 -6.870049 -2.719590 3.227506 -12.916349 0.025090 -0.087420 0.000000 0.000000 0.000000 
